<svg width="1350" height="1350" viewBox="0 0 1350 1350" fill="none" xmlns="http://www.w3.org/2000/svg">
<g id="Asteroids">
<path id="RockB" d="M1264.74 227.865C1284.78 246.21 1292.01 278.84 1281.41 304.1C1270.94 328.934 1242.23 346.266 1227.85 379.246C1212.91 412.521 1211.87 461.312 1189.95 485.416C1168.58 509.225 1126.46 507.921 1102.64 485.139C1078.53 461.798 1072.86 416.552 1048.43 385.161C1023.71 353.211 980.647 335.249 968.459 308.103C956.699 281.089 976.106 245.45 1005.87 230.78C1035.2 215.978 1074.9 222.143 1105.66 220.879C1136 219.482 1157.42 210.656 1184.48 207.779C1211.83 205.461 1244.7 209.52 1264.74 227.865Z" fill="#6284FF" fill-opacity="0.5"/>
<path id="RockL" d="M177.399 133.488C209.998 114.673 237.895 98.1705 264.534 99.6964C291.173 101.222 317.505 121.032 354.458 127.873C391.886 134.841 439.807 129.315 463.061 147.28C485.712 165.593 483.093 207.746 461.216 236.065C439.338 264.384 398.203 278.87 375.322 295.697C352.314 313 347.306 333.595 332.281 366.812C317.257 400.028 291.74 445.739 265.824 451.039C239.432 456.211 213.117 421.1 189.114 390.691C165.715 359.933 144.977 334.48 125.421 302.711C106.469 270.594 88.0955 232.51 97.5591 202.905C107.499 173.427 144.8 152.302 177.399 133.488Z" fill="#6284FF" fill-opacity="0.5"/>
<path id="RockB_2" d="M276.699 1221.5C244.995 1184.2 224.601 1141.53 220.207 1094.97C216.339 1048.91 228.47 998.97 259.133 973.075C290.313 947.171 340.026 945.315 374.472 960.292C408.917 975.269 428.096 1007.08 467.883 1031.81C507.153 1056.56 567.033 1074.22 581.031 1106.12C595.556 1138.52 564.198 1185.16 525.452 1223.62C487.224 1262.08 441.615 1292.88 397.04 1292.06C352.473 1291.76 308.931 1259.32 276.699 1221.5Z" fill="#6284FF" fill-opacity="0.5"/>
</g>
</svg>
