<svg width="64" height="64" viewBox="0 0 64 64" fill="none" xmlns="http://www.w3.org/2000/svg">
<g id="friends_icon">
<mask id="path-1-inside-1_306_11" fill="white">
<path fill-rule="evenodd" clip-rule="evenodd" d="M39.8786 62.9826C35.9339 63.9833 31.8354 64.2212 27.8176 63.6964C31.536 57.5465 30.7405 49.4324 25.431 44.1229C19.1858 37.8778 9.06038 37.8778 2.81519 44.1229C2.71286 44.2253 2.6122 44.3287 2.51322 44.433C-2.39702 32.7981 -0.112169 18.8477 9.36778 9.36778C21.8582 -3.12259 42.1091 -3.12259 54.5994 9.36778C65.5325 20.3008 66.8956 37.1798 58.6889 49.5956C58.2881 49.0078 57.8269 48.4488 57.3054 47.9273C52.7969 43.4188 45.4873 43.4188 40.9789 47.9273C36.8731 52.033 36.5064 58.4618 39.8786 62.9826ZM20.4368 33.9485C17.3142 37.0711 12.2515 37.0711 9.12892 33.9485C6.00632 30.8259 6.00632 25.7632 9.12892 22.6406C12.2515 19.518 17.3142 19.518 20.4368 22.6406C23.5594 25.7632 23.5594 30.8259 20.4368 33.9485ZM44.4146 40.2015C46.7694 42.5564 50.5874 42.5564 52.9422 40.2015C55.297 37.8467 55.297 34.0287 52.9422 31.6739C50.5874 29.3191 46.7694 29.3191 44.4146 31.6739C42.0598 34.0287 42.0598 37.8467 44.4146 40.2015Z"/>
</mask>
<path fill-rule="evenodd" clip-rule="evenodd" d="M39.8786 62.9826C35.9339 63.9833 31.8354 64.2212 27.8176 63.6964C31.536 57.5465 30.7405 49.4324 25.431 44.1229C19.1858 37.8778 9.06038 37.8778 2.81519 44.1229C2.71286 44.2253 2.6122 44.3287 2.51322 44.433C-2.39702 32.7981 -0.112169 18.8477 9.36778 9.36778C21.8582 -3.12259 42.1091 -3.12259 54.5994 9.36778C65.5325 20.3008 66.8956 37.1798 58.6889 49.5956C58.2881 49.0078 57.8269 48.4488 57.3054 47.9273C52.7969 43.4188 45.4873 43.4188 40.9789 47.9273C36.8731 52.033 36.5064 58.4618 39.8786 62.9826ZM20.4368 33.9485C17.3142 37.0711 12.2515 37.0711 9.12892 33.9485C6.00632 30.8259 6.00632 25.7632 9.12892 22.6406C12.2515 19.518 17.3142 19.518 20.4368 22.6406C23.5594 25.7632 23.5594 30.8259 20.4368 33.9485ZM44.4146 40.2015C46.7694 42.5564 50.5874 42.5564 52.9422 40.2015C55.297 37.8467 55.297 34.0287 52.9422 31.6739C50.5874 29.3191 46.7694 29.3191 44.4146 31.6739C42.0598 34.0287 42.0598 37.8467 44.4146 40.2015Z" fill="#6284FF"/>
<path d="M27.8176 63.6964L6.42409 50.7612L-13.3865 83.5261L24.5793 88.4857L27.8176 63.6964ZM39.8786 62.9826L46.0259 87.215L82.2831 78.0174L59.9175 48.0346L39.8786 62.9826ZM25.431 44.1229L43.1087 26.4453L43.1087 26.4453L25.431 44.1229ZM2.81519 44.1229L20.4929 61.8006L20.4929 61.8006L2.81519 44.1229ZM2.51322 44.433L-20.5196 54.1535L-5.65367 89.3786L20.6541 61.635L2.51322 44.433ZM9.36778 9.36778L-8.30989 -8.30989L9.36778 9.36778ZM54.5994 9.36778L72.2771 -8.30988L72.2771 -8.30989L54.5994 9.36778ZM58.6889 49.5956L38.0347 63.6811L59.0131 94.4428L79.5447 63.381L58.6889 49.5956ZM40.9789 47.9273L58.6565 65.6049L58.6565 65.6049L40.9789 47.9273ZM9.12892 33.9485L26.8066 16.2708L26.8066 16.2708L9.12892 33.9485ZM20.4368 33.9485L2.75916 16.2708L2.75915 16.2708L20.4368 33.9485ZM9.12892 22.6406L-8.54875 4.9629L-8.54875 4.9629L9.12892 22.6406ZM44.4146 40.2015L62.0923 22.5239L62.0923 22.5238L44.4146 40.2015ZM52.9422 31.6739L70.6199 13.9963L70.6199 13.9962L52.9422 31.6739ZM44.4146 31.6739L62.0923 49.3516L62.0923 49.3516L44.4146 31.6739ZM24.5793 88.4857C31.7177 89.4183 39.0014 88.997 46.0259 87.215L33.7314 38.7502C32.8663 38.9696 31.9531 39.0242 31.0559 38.907L24.5793 88.4857ZM7.75334 61.8006C4.73893 58.7862 4.33058 54.2237 6.42409 50.7612L49.2111 76.6315C58.7414 60.8692 56.742 40.0786 43.1087 26.4453L7.75334 61.8006ZM20.4929 61.8006C16.9749 65.3185 11.2713 65.3185 7.75335 61.8006L43.1087 26.4453C27.1004 10.437 1.14581 10.437 -14.8625 26.4453L20.4929 61.8006ZM20.6541 61.635C20.601 61.691 20.5473 61.7462 20.4929 61.8006L-14.8625 26.4453C-15.1216 26.7044 -15.3766 26.9663 -15.6276 27.231L20.6541 61.635ZM-8.30989 -8.30989C-25.2277 8.6079 -29.2485 33.4704 -20.5196 54.1535L25.5461 34.7125C24.4544 32.1259 25.0033 29.0876 27.0455 27.0455L-8.30989 -8.30989ZM72.2771 -8.30989C50.0236 -30.5634 13.9436 -30.5634 -8.30989 -8.30989L27.0455 27.0455C29.7727 24.3182 34.1945 24.3182 36.9218 27.0455L72.2771 -8.30989ZM79.5447 63.381C94.1719 41.2518 91.7766 11.1896 72.2771 -8.30988L36.9218 27.0454C39.2883 29.412 39.6194 33.1078 37.8332 35.8101L79.5447 63.381ZM39.6277 65.6049C39.0417 65.0189 38.5074 64.3743 38.0347 63.6811L79.3432 35.51C78.0687 33.6412 76.6121 31.8787 74.9831 30.2496L39.6277 65.6049ZM58.6565 65.6049C53.4019 70.8596 44.8824 70.8596 39.6277 65.6049L74.9831 30.2496C60.7115 15.978 37.5727 15.978 23.3012 30.2496L58.6565 65.6049ZM59.9175 48.0346C63.8618 53.3223 63.4573 60.8042 58.6565 65.6049L23.3012 30.2496C10.289 43.2618 9.15093 63.6014 19.8397 77.9306L59.9175 48.0346ZM-8.54876 51.6261C4.33694 64.5119 25.2288 64.5119 38.1145 51.6261L2.75915 16.2708C9.39967 9.6303 20.1661 9.6303 26.8066 16.2708L-8.54876 51.6261ZM-8.54875 4.9629C-21.4345 17.8486 -21.4345 38.7405 -8.54875 51.6262L26.8066 16.2708C33.4471 22.9113 33.4471 33.6777 26.8066 40.3182L-8.54875 4.9629ZM38.1145 4.9629C25.2288 -7.9228 4.33695 -7.9228 -8.54875 4.9629L26.8066 40.3182C20.1661 46.9588 9.39968 46.9588 2.75916 40.3182L38.1145 4.9629ZM38.1145 51.6262C51.0002 38.7405 51.0002 17.8486 38.1145 4.9629L2.75916 40.3182C-3.88135 33.6777 -3.88136 22.9113 2.75916 16.2708L38.1145 51.6262ZM35.2645 22.5238C42.6728 15.1156 54.684 15.1156 62.0923 22.5239L26.7369 57.8792C38.8549 69.9971 58.5019 69.9971 70.6199 57.8792L35.2645 22.5238ZM35.2645 49.3516C27.8563 41.9433 27.8563 29.9321 35.2645 22.5238L70.6199 57.8792C82.7378 45.7612 82.7378 26.1142 70.6199 13.9963L35.2645 49.3516ZM62.0923 49.3516C54.684 56.7599 42.6728 56.7598 35.2645 49.3516L70.6199 13.9962C58.5019 1.87831 38.8549 1.87829 26.7369 13.9963L62.0923 49.3516ZM62.0923 22.5238C69.5005 29.9321 69.5005 41.9433 62.0923 49.3516L26.7369 13.9962C14.619 26.1142 14.619 45.7613 26.7369 57.8792L62.0923 22.5238Z" fill="#6284FF" mask="url(#path-1-inside-1_306_11)"/>
</g>
</svg>
