<svg width="50" height="47" viewBox="0 0 50 47" fill="none" xmlns="http://www.w3.org/2000/svg">
<g id="friend_icon">
<mask id="path-1-inside-1_306_49" fill="white">
<path fill-rule="evenodd" clip-rule="evenodd" d="M12.5689 45.9141C10.6367 44.8356 8.81955 43.4752 7.17742 41.8331C-2.39247 32.2632 -2.39247 16.7473 7.17742 7.17742C16.7473 -2.39247 32.2632 -2.39247 41.8331 7.17742C51.403 16.7473 51.403 32.2632 41.8331 41.8331C40.0715 43.5947 38.1083 45.0321 36.0179 46.1451C37.3411 41.9301 36.3326 37.1412 32.9924 33.801C28.2074 29.016 20.4495 29.016 15.6645 33.801C12.3852 37.0803 11.3533 41.756 12.5689 45.9141ZM28.8182 24.4103C26.4257 26.8028 22.5467 26.8028 20.1543 24.4103C17.7618 22.0178 17.7618 18.1388 20.1543 15.7464C22.5467 13.3539 26.4257 13.3539 28.8182 15.7464C31.2107 18.1388 31.2107 22.0178 28.8182 24.4103Z"/>
</mask>
<path fill-rule="evenodd" clip-rule="evenodd" d="M12.5689 45.9141C10.6367 44.8356 8.81955 43.4752 7.17742 41.8331C-2.39247 32.2632 -2.39247 16.7473 7.17742 7.17742C16.7473 -2.39247 32.2632 -2.39247 41.8331 7.17742C51.403 16.7473 51.403 32.2632 41.8331 41.8331C40.0715 43.5947 38.1083 45.0321 36.0179 46.1451C37.3411 41.9301 36.3326 37.1412 32.9924 33.801C28.2074 29.016 20.4495 29.016 15.6645 33.801C12.3852 37.0803 11.3533 41.756 12.5689 45.9141ZM28.8182 24.4103C26.4257 26.8028 22.5467 26.8028 20.1543 24.4103C17.7618 22.0178 17.7618 18.1388 20.1543 15.7464C22.5467 13.3539 26.4257 13.3539 28.8182 15.7464C31.2107 18.1388 31.2107 22.0178 28.8182 24.4103Z" fill="#DEE5FF"/>
<path d="M7.17742 41.8331L-10.5002 59.5108L-10.5002 59.5108L7.17742 41.8331ZM12.5689 45.9141L0.38358 67.7434L53.6975 97.5039L36.5645 38.8991L12.5689 45.9141ZM7.17742 7.17742L24.8551 24.8551L24.8551 24.8551L7.17742 7.17742ZM41.8331 7.17742L59.5108 -10.5002L59.5108 -10.5002L41.8331 7.17742ZM41.8331 41.8331L59.5108 59.5108L59.5108 59.5108L41.8331 41.8331ZM36.0179 46.1451L12.1655 38.6575L-6.11899 96.9045L47.7676 68.212L36.0179 46.1451ZM32.9924 33.801L50.67 16.1233L50.67 16.1233L32.9924 33.801ZM15.6645 33.801L33.3422 51.4786L33.3422 51.4786L15.6645 33.801ZM20.1543 15.7464L37.8319 33.424L37.8319 33.424L20.1543 15.7464ZM28.8182 15.7464L11.1405 33.424L11.1405 33.424L28.8182 15.7464ZM-10.5002 59.5108C-7.2116 62.7994 -3.54227 65.552 0.38358 67.7434L24.7543 24.0849C24.7823 24.1005 24.8066 24.1166 24.8261 24.1314C24.8459 24.1463 24.8555 24.1558 24.8551 24.1554L-10.5002 59.5108ZM-10.5002 -10.5002C-29.8333 8.83276 -29.8333 40.1778 -10.5002 59.5108L24.8551 24.1554C24.8545 24.1548 24.8596 24.1599 24.8685 24.1708C24.8774 24.1817 24.8883 24.1962 24.9 24.214C24.9243 24.2508 24.9455 24.2913 24.9619 24.3318C24.9935 24.4095 25 24.4676 25 24.5053C25 24.5429 24.9935 24.601 24.9619 24.6787C24.9455 24.7192 24.9243 24.7597 24.9 24.7965C24.8883 24.8143 24.8774 24.8288 24.8685 24.8397C24.8596 24.8506 24.8545 24.8557 24.8551 24.8551L-10.5002 -10.5002ZM59.5108 -10.5002C40.1778 -29.8333 8.83276 -29.8333 -10.5002 -10.5002L24.8551 24.8551C24.8557 24.8545 24.8506 24.8596 24.8397 24.8685C24.8288 24.8774 24.8143 24.8883 24.7965 24.9C24.7597 24.9243 24.7192 24.9455 24.6787 24.9619C24.601 24.9935 24.5429 25 24.5053 25C24.4676 25 24.4095 24.9935 24.3318 24.9619C24.2913 24.9455 24.2508 24.9243 24.214 24.9C24.1962 24.8883 24.1817 24.8774 24.1708 24.8685C24.1599 24.8596 24.1548 24.8545 24.1554 24.8551L59.5108 -10.5002ZM59.5108 59.5108C78.8438 40.1778 78.8438 8.83276 59.5108 -10.5002L24.1554 24.8551C24.156 24.8557 24.1509 24.8506 24.142 24.8397C24.1331 24.8288 24.1223 24.8143 24.1105 24.7965C24.0862 24.7597 24.065 24.7192 24.0486 24.6787C24.017 24.601 24.0105 24.5429 24.0105 24.5053C24.0105 24.4676 24.017 24.4095 24.0486 24.3318C24.065 24.2913 24.0862 24.2508 24.1105 24.214C24.1223 24.1962 24.1331 24.1817 24.142 24.1708C24.1509 24.1599 24.156 24.1548 24.1554 24.1554L59.5108 59.5108ZM47.7676 68.212C52.016 65.9499 55.9818 63.0398 59.5108 59.5108L24.1554 24.1554C24.1552 24.1557 24.1662 24.1448 24.1886 24.1282C24.2108 24.1119 24.2377 24.0946 24.2682 24.0783L47.7676 68.212ZM15.3147 51.4786C11.8147 47.9786 10.8102 42.9752 12.1655 38.6575L59.8703 53.6327C63.872 40.885 60.8505 26.3037 50.67 16.1233L15.3147 51.4786ZM33.3422 51.4786C28.364 56.4568 20.2928 56.4568 15.3147 51.4786L50.67 16.1233C36.122 1.57523 12.5349 1.57523 -2.01315 16.1233L33.3422 51.4786ZM36.5645 38.8991C37.8087 43.1547 36.7778 48.0431 33.3422 51.4786L-2.01314 16.1233C-12.0074 26.1175 -15.102 40.3574 -11.4267 52.9292L36.5645 38.8991ZM2.47659 42.088C14.6322 54.2435 34.3403 54.2435 46.4958 42.088L11.1405 6.73262C18.5111 -0.63801 30.4613 -0.63801 37.8319 6.73262L2.47659 42.088ZM2.4766 -1.9313C-9.67899 10.2243 -9.67899 29.9324 2.47659 42.088L37.8319 6.73262C45.2026 14.1033 45.2026 26.0534 37.8319 33.424L2.4766 -1.9313ZM46.4958 -1.9313C34.3403 -14.0869 14.6322 -14.0869 2.47659 -1.9313L37.8319 33.424C30.4613 40.7947 18.5111 40.7947 11.1405 33.424L46.4958 -1.9313ZM46.4958 42.088C58.6514 29.9324 58.6514 10.2243 46.4958 -1.9313L11.1405 33.424C3.76987 26.0534 3.76988 14.1033 11.1405 6.73262L46.4958 42.088Z" fill="#DEE5FF" mask="url(#path-1-inside-1_306_49)"/>
</g>
</svg>
