<svg width="81" height="65" viewBox="0 0 81 65" fill="none" xmlns="http://www.w3.org/2000/svg">
<path id="gallery_icon" d="M44.1651 54.0724C44.1651 55.1784 43.2662 56.0751 42.1576 56.0751H22.0825C20.9736 56.0751 20.075 55.1784 20.075 54.0724V16.0214H6.02248C2.69629 16.0214 0 18.7126 0 22.0295V58.0777C0 61.3959 2.69633 64.0858 6.02252 64.0858H58.2177C61.5439 64.0858 64.2402 61.3959 64.2402 58.0777L64.2402 48.0643H44.1651V54.0724ZM13.0488 54.9486C13.0488 55.5705 12.543 56.0751 11.9195 56.0751H8.15546C7.532 56.0751 7.02624 55.5705 7.02624 54.9486V51.1935C7.02624 50.5716 7.532 50.067 8.15546 50.067H11.9195C12.543 50.067 13.0488 50.5716 13.0488 51.1935V54.9486ZM13.0488 41.9311C13.0488 42.5531 12.543 43.0576 11.9195 43.0576H8.15546C7.532 43.0576 7.02624 42.5531 7.02624 41.9311V38.1761C7.02624 37.5541 7.532 37.0496 8.15546 37.0496H11.9195C12.543 37.0496 13.0488 37.5541 13.0488 38.1761V41.9311ZM13.0488 28.9137C13.0488 29.5357 12.543 30.0402 11.9195 30.0402H8.15546C7.532 30.0402 7.02624 29.5357 7.02624 28.9137V25.1587C7.02624 24.5328 7.53188 24.0322 8.15546 24.0322H11.9195C12.543 24.0322 13.0488 24.5367 13.0488 25.1587V28.9137ZM51.1914 51.1935C51.1914 50.5716 51.6971 50.067 52.3206 50.067H56.0847C56.7081 50.067 57.2139 50.5716 57.2139 51.1935V54.9486C57.2139 55.5705 56.7081 56.0751 56.0847 56.0751H52.3206C51.6971 56.0751 51.1914 55.5705 51.1914 54.9486V51.1935ZM74.1648 0H29.9996C26.7876 0 23.9771 2.68985 23.9771 6.00804V38.0509C23.9771 41.3691 26.6735 44.059 29.9996 44.059H74.1648C77.491 44.059 80.1873 41.3691 80.1873 38.0509V6.00804C80.3002 2.68985 77.6026 0 74.1648 0ZM38.0297 8.01072C40.248 8.01072 42.0447 9.80438 42.0447 12.0161C42.0447 14.2278 40.248 16.0214 38.0297 16.0214C35.9218 16.0214 34.0147 14.2316 34.0147 12.0161C34.0147 9.80062 35.9218 8.01072 38.0297 8.01072ZM72.0318 34.9969C71.6805 35.6477 71.003 36.0483 70.2627 36.0483H34.0147C33.2618 36.0483 32.6847 35.6227 32.3334 34.9593C31.9946 34.2834 32.0573 33.4698 32.509 32.869L41.2919 20.8529C41.6683 20.3272 42.2705 20.0268 42.7975 20.0268C43.4386 20.0268 44.0414 20.3323 44.4198 20.8497L47.224 24.6873L55.096 12.9078C55.4699 12.3503 56.0972 12.0161 56.8751 12.0161C57.5461 12.0161 58.1725 12.3505 58.5451 12.9079L71.9327 32.9347C72.3455 33.5449 72.3831 34.3335 72.0318 34.9969Z" fill="#6284FF"/>
</svg>
