<svg width="61" height="65" viewBox="0 0 61 65" fill="none" xmlns="http://www.w3.org/2000/svg">
<path id="settings_icon" d="M60.2304 20.8529C60.6434 21.9294 60.293 23.1435 59.4418 23.932L54.0221 28.8636C54.1598 29.9025 54.2349 30.9665 54.2349 32.0429C54.2349 33.1193 54.1598 34.1833 54.0221 35.2222L59.4418 40.1538C60.293 40.9423 60.6434 42.1564 60.2304 43.2329C59.6796 44.7224 59.0163 46.1618 58.2653 47.5261L57.677 48.54C56.8509 49.9168 55.9246 51.2186 54.9108 52.4577C54.1598 53.3464 52.9456 53.6593 51.8442 53.3089L44.8723 51.0809C43.1951 52.3701 41.23 53.4466 39.365 54.2727L37.8004 61.4197C37.55 62.5462 36.6739 63.3473 35.5223 63.6477C33.795 63.9356 32.0176 64.0858 30.09 64.0858C28.3878 64.0858 26.6104 63.9356 24.8831 63.6477C23.7315 63.3473 22.8554 62.5462 22.605 61.4197L21.0404 54.2727C19.0628 53.4466 17.2103 52.3701 15.5331 51.0809L8.56623 53.3089C7.45975 53.6593 6.23936 53.3464 5.49837 52.4577C4.48326 51.2186 3.55702 49.9168 2.73092 48.54L2.14513 47.5261C1.38536 46.1618 0.72448 44.7224 0.169987 43.2329C-0.235555 42.1564 0.106152 40.9423 0.964802 40.1538L6.37955 35.2222C6.24187 34.1833 6.17052 33.1193 6.17052 32.0429C6.17052 30.9665 6.24187 29.9025 6.37955 28.8636L0.964802 23.932C0.106152 23.1435 -0.235555 21.9419 0.169987 20.8529C0.72448 19.3634 1.38662 17.924 2.14513 16.5597L2.72966 15.5458C3.55702 14.169 4.48326 12.8672 5.49837 11.6343C6.23936 10.7394 7.45975 10.429 8.56623 10.7819L15.5331 13.0049C17.2103 11.7107 19.0628 10.6342 21.0404 9.81689L22.605 2.66982C22.8554 1.5333 23.7315 0.630844 24.8831 0.439338C26.6104 0.150326 28.3878 0 30.2027 0C32.0176 0 33.795 0.150326 35.5223 0.439338C36.6739 0.630844 37.55 1.5333 37.8004 2.66982L39.365 9.81689C41.23 10.6342 43.1951 11.7107 44.8723 13.0049L51.8442 10.7819C52.9456 10.429 54.1598 10.7394 54.9108 11.6343C55.9246 12.8672 56.8509 14.169 57.677 15.5458L58.2653 16.5597C59.0163 17.924 59.6796 19.3634 60.2304 20.8529ZM30.2027 42.0563C35.7351 42.0563 40.2161 37.5753 40.2161 31.9302C40.2161 26.5105 35.7351 21.9168 30.2027 21.9168C24.6703 21.9168 20.1893 26.5105 20.1893 31.9302C20.1893 37.5753 24.6703 42.0563 30.2027 42.0563Z" fill="white"/>
</svg>
