<svg width="240" height="77" viewBox="0 0 240 77" fill="none" xmlns="http://www.w3.org/2000/svg">
<g id="sfera_logo">
<path id="sfera_txt" d="M93.1 55.35C89 55.35 85.6333 54.3833 83 52.45C80.3667 50.4833 78.95 47.6833 78.75 44.05H89.2C89.3 45.2833 89.6667 46.1833 90.3 46.75C90.9333 47.3167 91.75 47.6 92.75 47.6C93.65 47.6 94.3833 47.3833 94.95 46.95C95.55 46.4833 95.85 45.85 95.85 45.05C95.85 44.0167 95.3667 43.2167 94.4 42.65C93.4333 42.0833 91.8667 41.45 89.7 40.75C87.4 39.9833 85.5333 39.25 84.1 38.55C82.7 37.8167 81.4667 36.7667 80.4 35.4C79.3667 34 78.85 32.1833 78.85 29.95C78.85 27.6833 79.4167 25.75 80.55 24.15C81.6833 22.5167 83.25 21.2833 85.25 20.45C87.25 19.6167 89.5167 19.2 92.05 19.2C96.15 19.2 99.4167 20.1667 101.85 22.1C104.317 24 105.633 26.6833 105.8 30.15H95.15C95.1167 29.0833 94.7833 28.2833 94.15 27.75C93.55 27.2167 92.7667 26.95 91.8 26.95C91.0667 26.95 90.4667 27.1667 90 27.6C89.5333 28.0333 89.3 28.65 89.3 29.45C89.3 30.1167 89.55 30.7 90.05 31.2C90.5833 31.6667 91.2333 32.0833 92 32.45C92.7667 32.7833 93.9 33.2167 95.4 33.75C97.6333 34.5167 99.4667 35.2833 100.9 36.05C102.367 36.7833 103.617 37.8333 104.65 39.2C105.717 40.5333 106.25 42.2333 106.25 44.3C106.25 46.4 105.717 48.2833 104.65 49.95C103.617 51.6167 102.1 52.9333 100.1 53.9C98.1333 54.8667 95.8 55.35 93.1 55.35ZM134.706 19.75V27.55H120.606V33.75H131.006V41.2H120.606V55H110.806V19.75H134.706ZM148.633 27.6V33.35H159.883V40.8H148.633V47.15H161.383V55H138.833V19.75H161.383V27.6H148.633ZM184.076 55L177.076 42H176.026V55H166.226V19.75H181.676C184.509 19.75 186.909 20.25 188.876 21.25C190.842 22.2167 192.326 23.5667 193.326 25.3C194.326 27 194.826 28.9167 194.826 31.05C194.826 33.45 194.159 35.5667 192.826 37.4C191.526 39.2 189.609 40.4833 187.076 41.25L195.026 55H184.076ZM176.026 35.3H180.876C182.209 35.3 183.209 34.9833 183.876 34.35C184.542 33.7167 184.876 32.8 184.876 31.6C184.876 30.4667 184.526 29.5833 183.826 28.95C183.159 28.2833 182.176 27.95 180.876 27.95H176.026V35.3ZM221.582 49.25H209.082L207.182 55H196.882L209.732 19.75H221.032L233.832 55H223.482L221.582 49.25ZM219.132 41.75L215.332 30.35L211.582 41.75H219.132Z" fill="#6284FF"/>
<path id="sfera_img" d="M34.9005 13.8216C30.0066 14.732 26.3292 16.525 22.6098 19.7746C21.4493 20.7972 19.4218 23.0803 19.4777 23.3185C19.5057 23.4025 26.2453 30.252 34.4531 38.5443L49.3865 53.602L48.4217 54.1763C44.2129 56.6696 38.8017 57.398 34.0056 56.1093C31.8803 55.535 30.4261 54.8907 28.6084 53.6861C24.5534 50.9967 21.6311 46.8225 20.5963 42.2002C19.9951 39.4688 19.5476 39.2166 25.0148 44.6934C30.2863 49.9602 30.51 50.1282 31.9502 50.1282C34.481 50.1282 36.131 47.5789 35.1103 45.2537C34.8726 44.7075 32.5375 42.2982 22.2043 31.9329L9.59205 19.2984H4.79602H0L0.167791 19.6065C0.251686 19.7886 3.55158 23.1784 7.49466 27.1424L14.6677 34.3561L14.5838 37.0595C14.486 40.8135 14.8775 43.2787 16.0939 46.5844C17.8558 51.4309 21.645 55.9833 26.2034 58.7847C28.4126 60.1294 30.9854 61.1659 33.7819 61.8243C35.3759 62.2025 35.6276 62.2165 38.8856 62.2305C42.1715 62.2305 42.3812 62.2165 43.9892 61.8243C48.995 60.6477 53.0779 58.3645 56.3498 54.9467L57.5243 53.7281L42.3113 38.4883L27.1122 23.2624L27.6575 22.8422C29.4054 21.4555 32.0481 20.2229 34.6908 19.5645C35.8653 19.2704 36.3407 19.2284 38.8856 19.2284C42.0177 19.2284 43.0663 19.3964 45.4853 20.2929C50.2534 22.0438 54.3083 25.9938 56.2799 30.7843C56.9091 32.3391 57.4684 34.5662 57.5663 35.9249C57.5942 36.5272 57.6642 37.2416 57.6921 37.5078C57.7481 37.942 57.2167 37.4377 51.5678 31.8068C44.8281 25.0553 44.8142 25.0413 43.2901 25.0413C41.8918 25.0413 40.7033 25.8117 40.13 27.0724C39.7804 27.8428 39.7944 29.1314 40.158 29.9439C40.3677 30.4341 43.4718 33.6137 54.0287 44.1892L67.6198 57.8182H72.4158H77.2118L77.044 57.496C76.9601 57.3279 73.7022 53.9942 69.829 50.1002L62.7538 42.9986L62.9496 42.0461C63.0894 41.3877 63.1453 40.0431 63.1453 37.8579C63.1453 34.9865 63.1034 34.4682 62.8237 33.1655C61.9009 29.0334 60.2929 25.6296 57.818 22.5621C54.2524 18.1778 49.3865 15.2083 43.6956 13.9616C41.6821 13.5274 36.886 13.4574 34.9005 13.8216Z" fill="#6284FF"/>
</g>
</svg>
