<svg width="78" height="50" viewBox="0 0 78 50" fill="none" xmlns="http://www.w3.org/2000/svg">
<path id="sfera_img_icon" d="M34.9005 0.821568C30.0066 1.73204 26.3292 3.52496 22.6098 6.77463C21.4493 7.79716 19.4218 10.0803 19.4777 10.3185C19.5057 10.4025 26.2453 17.252 34.4531 25.5443L49.3865 40.602L48.4217 41.1763C44.2129 43.6696 38.8017 44.398 34.0056 43.1093C31.8803 42.535 30.4261 41.8907 28.6084 40.6861C24.5534 37.9967 21.6311 33.8225 20.5963 29.2002C19.9951 26.4688 19.5476 26.2166 25.0148 31.6934C30.2863 36.9602 30.51 37.1282 31.9502 37.1282C34.481 37.1282 36.131 34.5789 35.1103 32.2537C34.8726 31.7075 32.5375 29.2982 22.2043 18.9329L9.59205 6.29839H4.79602H0L0.167791 6.60654C0.251686 6.78863 3.55158 10.1784 7.49466 14.1424L14.6677 21.3561L14.5838 24.0595C14.486 27.8135 14.8775 30.2787 16.0939 33.5844C17.8558 38.4309 21.645 42.9833 26.2034 45.7847C28.4126 47.1294 30.9854 48.1659 33.7819 48.8243C35.3759 49.2025 35.6276 49.2165 38.8856 49.2305C42.1715 49.2305 42.3812 49.2165 43.9892 48.8243C48.995 47.6477 53.0779 45.3645 56.3498 41.9467L57.5243 40.7281L42.3113 25.4883L27.1122 10.2624L27.6575 9.84221C29.4054 8.4555 32.0481 7.22286 34.6908 6.56452C35.8653 6.27037 36.3407 6.22835 38.8856 6.22835C42.0177 6.22835 43.0663 6.39643 45.4853 7.29289C50.2534 9.04379 54.3083 12.9938 56.2799 17.7843C56.9091 19.3391 57.4684 21.5662 57.5663 22.9249C57.5942 23.5272 57.6642 24.2416 57.6921 24.5078C57.7481 24.942 57.2167 24.4377 51.5678 18.8068C44.8281 12.0553 44.8142 12.0413 43.2901 12.0413C41.8918 12.0413 40.7033 12.8117 40.13 14.0724C39.7804 14.8428 39.7944 16.1314 40.158 16.9439C40.3677 17.4341 43.4718 20.6137 54.0287 31.1892L67.6198 44.8182H72.4158H77.2118L77.044 44.496C76.9601 44.3279 73.7022 40.9942 69.829 37.1002L62.7538 29.9986L62.9496 29.0461C63.0894 28.3877 63.1453 27.0431 63.1453 24.8579C63.1453 21.9865 63.1034 21.4682 62.8237 20.1655C61.9009 16.0334 60.2929 12.6296 57.818 9.56206C54.2524 5.17781 49.3865 2.20828 43.6956 0.961639C41.6821 0.527416 36.886 0.45738 34.9005 0.821568Z" fill="#6284FF"/>
</svg>
