<svg width="67" height="67" viewBox="0 0 67 67" fill="none" xmlns="http://www.w3.org/2000/svg">
<path id="chats_icon" d="M66.757 2.70163C65.2387 7.75613 62.2686 17.2847 58.7437 27.198C59.6576 27.4752 60.4905 27.7198 61.1759 27.9318C61.7797 28.1111 62.2693 28.5515 62.4984 29.1223C62.7432 29.7093 62.7106 30.3616 62.4168 30.9158C59.5277 36.4269 51.6293 50.8469 43.8131 58.8819C43.6826 59.0286 43.5519 59.208 43.4213 59.3384C33.4994 69.2687 17.3892 69.2687 7.4542 59.3547C-2.48473 49.4244 -2.48473 33.3322 7.4542 23.3928C7.58476 23.2623 7.76427 23.1319 7.91114 23.0014C15.933 15.1951 30.346 7.2996 35.777 4.41299C36.3318 4.1195 36.9846 4.08689 37.5564 4.33146C38.1439 4.57604 38.5845 5.06531 38.764 5.65281C38.9762 6.32131 39.221 7.16981 39.4984 8.08288C49.4047 4.56104 58.9376 1.59355 63.99 0.0935056C64.7406 -0.134762 65.5409 0.0608568 66.0958 0.615261C66.7701 1.15254 66.8484 1.96726 66.757 2.70163ZM41.6518 41.622C41.6518 32.4091 34.1607 24.9258 24.9412 24.9258C15.7046 24.9258 8.23047 32.4104 8.23047 41.622C8.23047 50.8518 15.7046 58.3181 24.9412 58.3181C34.2756 58.4355 41.6518 50.9744 41.6518 41.622ZM24.9412 37.4479C24.9412 39.7476 23.0651 41.622 20.7635 41.622C18.4462 41.622 16.5858 39.7463 16.5858 37.4479C16.5858 35.1496 18.4462 33.2739 20.7635 33.2739C21.8732 33.2739 22.9346 33.7141 23.7179 34.4967C24.5012 35.2794 24.9412 36.4566 24.9412 37.4479ZM29.2233 47.883C29.2233 49.0408 28.2802 49.9701 27.1383 49.9701C25.9797 49.9701 25.0495 49.0404 25.0495 47.883C25.0495 46.7253 25.9764 45.796 27.1357 45.796C28.2833 45.796 29.2233 46.8395 29.2233 47.883Z" fill="#6284FF"/>
</svg>
