<svg width="65" height="65" viewBox="0 0 65 65" fill="none" xmlns="http://www.w3.org/2000/svg">
<path id="explore_icon" d="M64.0858 32.0429C64.0858 49.7416 49.7416 64.0858 32.0429 64.0858C14.3442 64.0858 0 49.7416 0 32.0429C0 14.3442 14.3442 0 32.0429 0C49.7416 0 64.0858 14.3442 64.0858 32.0429ZM7.22342 24.0447L8.39499 26.2101C9.43263 28.025 11.1387 29.3643 13.1551 29.9401L20.2897 32.0053C22.5552 32.6187 24.0322 34.5838 24.0322 36.8243V41.8185C24.0322 43.1953 24.8082 44.447 26.0349 44.9477C27.2615 45.6736 28.0375 46.9253 28.0375 48.3022V53.1837C28.0375 55.1363 29.9025 56.5382 31.78 56C33.8078 55.4242 35.3598 53.7094 35.873 51.7818L36.2235 50.3799C36.7492 48.2646 38.126 46.4497 40.0161 45.3607L41.0299 44.785C42.9074 43.721 44.059 41.7309 44.059 39.5655V38.5391C44.059 36.9369 43.4206 35.4099 42.2941 34.2834L41.8185 33.8078C40.692 32.6813 39.1524 31.9302 37.5628 31.9302H32.0554C30.7787 31.9302 29.4019 31.6799 28.1877 30.9915L23.8695 28.5132C23.3312 28.2128 22.9182 27.7121 22.7304 27.1238C22.3299 25.9222 22.8681 24.6205 23.9946 24.0447L24.7456 23.6817C25.5717 23.2686 26.523 23.1935 27.299 23.494L30.3156 24.4577C31.3294 24.7957 32.4559 24.4077 33.0568 23.519C33.645 22.6303 33.5825 21.4662 32.9066 20.6526L31.2043 18.6249C29.9526 17.1229 29.9651 14.9325 31.2418 13.4555L33.207 11.1549C34.3084 9.86946 34.4837 8.03075 33.645 6.56128L33.3446 6.04059C32.8064 6.01931 32.481 6.00804 32.0429 6.00804C20.4148 6.00804 10.5641 13.6307 7.22342 24.0447ZM54.7733 19.3384L51.569 20.6276C49.6039 21.4162 48.59 23.5941 49.2534 25.6093L51.3688 31.9553C51.8069 33.257 52.8708 34.2458 54.1976 34.5838L57.8524 35.485C58.0027 34.3585 58.0777 33.207 58.0777 32.0429C58.0777 27.4367 56.8761 23.1059 54.7733 19.3384Z" fill="#6284FF"/>
</svg>
