<svg width="56" height="45" viewBox="0 0 56 45" fill="none" xmlns="http://www.w3.org/2000/svg">
<g id="group_icon">
<mask id="path-1-inside-1_306_45" fill="white">
<path d="M43.2659 37.895C34.5175 46.564 20.3335 46.564 11.5851 37.895C8.03173 34.3739 5.92164 29.9643 5.25482 25.3878L27.243 18.1108C29.2097 17.4599 30.2716 15.3524 29.6147 13.4035C28.9579 11.4546 26.831 10.4024 24.8643 11.0533L5.53971 17.4488C6.42237 13.437 8.43749 9.62076 11.5851 6.50176C20.3335 -2.16725 34.5175 -2.16725 43.2659 6.50176C46.5909 9.79652 48.6521 13.8693 49.4497 18.1287L24.041 26.5378C22.0742 27.1887 21.0124 29.2963 21.6692 31.2451C22.3261 33.194 24.4529 34.2463 26.4197 33.5954L49.506 25.9549C48.7523 30.3276 46.6723 34.5196 43.2659 37.895Z"/>
</mask>
<path d="M43.2659 37.895C34.5175 46.564 20.3335 46.564 11.5851 37.895C8.03173 34.3739 5.92164 29.9643 5.25482 25.3878L27.243 18.1108C29.2097 17.4599 30.2716 15.3524 29.6147 13.4035C28.9579 11.4546 26.831 10.4024 24.8643 11.0533L5.53971 17.4488C6.42237 13.437 8.43749 9.62076 11.5851 6.50176C20.3335 -2.16725 34.5175 -2.16725 43.2659 6.50176C46.5909 9.79652 48.6521 13.8693 49.4497 18.1287L24.041 26.5378C22.0742 27.1887 21.0124 29.2963 21.6692 31.2451C22.3261 33.194 24.4529 34.2463 26.4197 33.5954L49.506 25.9549C48.7523 30.3276 46.6723 34.5196 43.2659 37.895Z" fill="#DEE5FF"/>
<path d="M-3.92741 18.7208C-10.4814 20.8898 -14.036 27.9612 -11.867 34.5152C-9.69794 41.0691 -2.62655 44.6238 3.92741 42.4547L-3.92741 18.7208ZM59.1339 24.184C65.6878 22.015 69.2425 14.9436 67.0734 8.38962C64.9044 1.83566 57.833 -1.71901 51.279 0.450042L59.1339 24.184ZM3.92741 42.4547L59.1339 24.184L51.279 0.450042L-3.92741 18.7208L3.92741 42.4547ZM11.5851 37.895L-6.01182 55.6531L-6.01182 55.6531L11.5851 37.895ZM43.2659 37.895L60.8628 55.6531L60.8628 55.6531L43.2659 37.895ZM5.25482 25.3878L-2.60001 1.65386L-22.5074 8.24228L-19.4839 28.9925L5.25482 25.3878ZM27.243 18.1108L19.3881 -5.62317L19.3881 -5.62317L27.243 18.1108ZM29.6147 13.4035L53.3053 5.41873L53.3053 5.4187L29.6147 13.4035ZM24.8643 11.0533L32.7191 34.7872L32.7191 34.7872L24.8643 11.0533ZM5.53971 17.4488L-18.8763 12.0768L-28.3174 54.9874L13.3945 41.1827L5.53971 17.4488ZM11.5851 6.50176L-6.01182 -11.2563L11.5851 6.50176ZM43.2659 6.50176L25.669 24.2598L25.669 24.2598L43.2659 6.50176ZM49.4497 18.1287L57.3045 41.8627L78.0432 34.9992L74.0226 13.5275L49.4497 18.1287ZM24.041 26.5378L16.1862 2.80383L16.1861 2.80383L24.041 26.5378ZM21.6692 31.2451L45.3598 23.2604L45.3598 23.2604L21.6692 31.2451ZM26.4197 33.5954L18.5649 9.86138L18.5649 9.86138L26.4197 33.5954ZM49.506 25.9549L74.1427 30.2014L81.223 -10.8755L41.6512 2.2209L49.506 25.9549ZM-6.01182 55.6531C12.4809 73.978 42.37 73.978 60.8628 55.6531L25.669 20.1369C26.6649 19.1501 28.186 19.1501 29.182 20.1369L-6.01182 55.6531ZM-19.4839 28.9925C-18.0581 38.7779 -13.5306 48.2026 -6.01182 55.6531L29.182 20.1369C29.594 20.5453 29.9014 21.1506 29.9936 21.7832L-19.4839 28.9925ZM19.3881 -5.62317L-2.60001 1.65386L13.1096 49.1218L35.0978 41.8448L19.3881 -5.62317ZM5.92413 21.3882C2.09882 10.0386 8.36089 -1.97367 19.3881 -5.62317L35.0978 41.8448C50.0585 36.8935 58.4443 20.6661 53.3053 5.41873L5.92413 21.3882ZM32.7191 34.7872C21.7907 38.404 9.71439 32.6338 5.92414 21.3883L53.3053 5.4187C48.2013 -9.72462 31.8713 -17.5993 17.0094 -12.6807L32.7191 34.7872ZM13.3945 41.1827L32.7191 34.7872L17.0094 -12.6807L-2.31511 -6.28521L13.3945 41.1827ZM-6.01182 -11.2563C-12.663 -4.66548 -16.9862 3.48598 -18.8763 12.0768L29.9557 22.8207C29.8309 23.388 29.538 23.907 29.182 24.2598L-6.01182 -11.2563ZM60.8628 -11.2563C42.37 -29.5812 12.4809 -29.5812 -6.01182 -11.2563L29.182 24.2598C28.186 25.2467 26.6649 25.2467 25.669 24.2598L60.8628 -11.2563ZM74.0226 13.5275C72.3158 4.41208 67.893 -4.28994 60.8628 -11.2563L25.669 24.2598C25.2887 23.883 24.9885 23.3265 24.8768 22.73L74.0226 13.5275ZM31.8958 50.2718L57.3045 41.8627L41.5949 -5.60525L16.1862 2.80383L31.8958 50.2718ZM45.3598 23.2604C49.1851 34.61 42.9231 46.6223 31.8958 50.2718L16.1861 2.80383C1.22541 7.75513 -7.1604 23.9825 -2.02135 39.2299L45.3598 23.2604ZM18.5649 9.86138C29.4932 6.24461 41.5696 12.0148 45.3598 23.2604L-2.02135 39.2299C3.08261 54.3732 19.4127 62.2479 34.2745 57.3293L18.5649 9.86138ZM41.6512 2.2209L18.5649 9.86138L34.2745 57.3293L57.3608 49.6889L41.6512 2.2209ZM60.8628 55.6531C68.0671 48.5142 72.5302 39.5564 74.1427 30.2014L24.8693 21.7083C24.9744 21.0987 25.2775 20.5249 25.669 20.1369L60.8628 55.6531Z" fill="#DEE5FF" mask="url(#path-1-inside-1_306_45)"/>
</g>
</svg>
