<svg width="86" height="58" viewBox="0 0 86 58" fill="none" xmlns="http://www.w3.org/2000/svg">
<g id="groups_icon">
<line id="Line 2" x1="5.15857" y1="41.8972" x2="79.4484" y2="17.0856" stroke="#6284FF" stroke-width="10" stroke-linecap="round"/>
<g id="Subtract">
<mask id="path-2-inside-1_306_18" fill="white">
<path fill-rule="evenodd" clip-rule="evenodd" d="M61.8787 49.1539C50.6341 60.3985 32.4029 60.3985 21.1583 49.1539C16.924 44.9197 14.2842 39.6947 13.2389 34.2252L42.1635 24.5649C44.7827 23.6901 46.1968 20.8577 45.3221 18.2385C44.4473 15.6192 41.6149 14.2051 38.9957 15.0799L13.1758 23.7033C14.1752 18.1102 16.8361 12.7557 21.1583 8.43348C32.4029 -2.81116 50.6341 -2.81116 61.8787 8.43348C66.5485 13.1033 69.279 18.978 70.0702 25.0569L38.6194 35.561C36.0002 36.4358 34.5861 39.2682 35.4608 41.8874C36.3356 44.5066 39.168 45.9207 41.7873 45.046L69.4495 35.8072C68.2264 40.6977 65.7028 45.3298 61.8787 49.1539Z"/>
</mask>
<path fill-rule="evenodd" clip-rule="evenodd" d="M61.8787 49.1539C50.6341 60.3985 32.4029 60.3985 21.1583 49.1539C16.924 44.9197 14.2842 39.6947 13.2389 34.2252L42.1635 24.5649C44.7827 23.6901 46.1968 20.8577 45.3221 18.2385C44.4473 15.6192 41.6149 14.2051 38.9957 15.0799L13.1758 23.7033C14.1752 18.1102 16.8361 12.7557 21.1583 8.43348C32.4029 -2.81116 50.6341 -2.81116 61.8787 8.43348C66.5485 13.1033 69.279 18.978 70.0702 25.0569L38.6194 35.561C36.0002 36.4358 34.5861 39.2682 35.4608 41.8874C36.3356 44.5066 39.168 45.9207 41.7873 45.046L69.4495 35.8072C68.2264 40.6977 65.7028 45.3298 61.8787 49.1539Z" fill="#6284FF"/>
<path d="M21.1583 49.1539L3.48064 66.8316L3.48064 66.8316L21.1583 49.1539ZM13.2389 34.2252L5.31928 10.5128L-15.4218 17.44L-11.3167 38.9185L13.2389 34.2252ZM42.1635 24.5649L50.0831 48.2773L50.0831 48.2773L42.1635 24.5649ZM45.3221 18.2385L69.0345 10.3189L69.0345 10.3188L45.3221 18.2385ZM38.9957 15.0799L31.0761 -8.63257L31.0761 -8.63257L38.9957 15.0799ZM13.1758 23.7033L-11.4344 19.3056L-18.841 60.7539L21.0954 47.4158L13.1758 23.7033ZM21.1583 8.43348L3.48064 -9.24419L3.48064 -9.24419L21.1583 8.43348ZM61.8787 8.43348L79.5564 -9.24419L79.5564 -9.24419L61.8787 8.43348ZM70.0702 25.0569L77.9898 48.7694L97.5182 42.2472L94.8611 21.8305L70.0702 25.0569ZM38.6194 35.561L30.6998 11.8485L30.6998 11.8485L38.6194 35.561ZM41.7873 45.046L33.8677 21.3335L33.8677 21.3335L41.7873 45.046ZM69.4495 35.8072L93.7025 41.8727L104.761 -2.34368L61.5299 12.0948L69.4495 35.8072ZM3.48064 66.8316C24.4884 87.8393 58.5487 87.8393 79.5564 66.8316L44.2011 31.4762C42.7195 32.9578 40.3175 32.9578 38.836 31.4762L3.48064 66.8316ZM-11.3167 38.9185C-9.3608 49.1518 -4.40548 58.9455 3.48064 66.8316L38.836 31.4762C38.2536 30.8938 37.9293 30.2377 37.7944 29.532L-11.3167 38.9185ZM34.2439 0.852412L5.31928 10.5128L21.1584 57.9377L50.0831 48.2773L34.2439 0.852412ZM21.6096 26.158C18.1105 15.6812 23.7671 4.35151 34.2439 0.852415L50.0831 48.2773C65.7983 43.0287 74.2832 26.0341 69.0345 10.3189L21.6096 26.158ZM46.9152 38.7923C36.4384 42.2914 25.1087 36.6349 21.6096 26.1581L69.0345 10.3188C63.7859 -5.39636 46.7913 -13.8812 31.0761 -8.63257L46.9152 38.7923ZM21.0954 47.4158L46.9152 38.7923L31.0761 -8.63257L5.25619 -0.0091286L21.0954 47.4158ZM3.48064 -9.24419C-4.5708 -1.19275 -9.56497 8.84412 -11.4344 19.3056L37.7859 28.101C37.9155 27.3762 38.243 26.7041 38.836 26.1111L3.48064 -9.24419ZM79.5564 -9.24419C58.5487 -30.2519 24.4884 -30.2519 3.48064 -9.24419L38.836 26.1111C40.3175 24.6296 42.7195 24.6296 44.2011 26.1111L79.5564 -9.24419ZM94.8611 21.8305C93.3831 10.474 88.2616 -0.539036 79.5564 -9.24419L44.2011 26.1111C44.8355 26.7456 45.175 27.4821 45.2792 28.2834L94.8611 21.8305ZM46.539 59.2734L77.9898 48.7694L62.1506 1.34448L30.6998 11.8485L46.539 59.2734ZM59.1733 33.9678C62.6724 44.4446 57.0158 55.7743 46.539 59.2734L30.6998 11.8485C14.9846 17.0972 6.49976 34.0917 11.7484 49.807L59.1733 33.9678ZM33.8677 21.3335C44.3445 17.8344 55.6742 23.491 59.1733 33.9678L11.7484 49.807C16.997 65.5222 33.9916 74.0071 49.7069 68.7584L33.8677 21.3335ZM61.5299 12.0948L33.8677 21.3335L49.7068 68.7584L77.3691 59.5197L61.5299 12.0948ZM79.5564 66.8316C86.6723 59.7157 91.411 51.0355 93.7025 41.8727L45.1965 29.7417C45.0418 30.36 44.7334 30.9439 44.2011 31.4762L79.5564 66.8316Z" fill="#6284FF" mask="url(#path-2-inside-1_306_18)"/>
</g>
</g>
</svg>
