<svg width="46" height="41" viewBox="0 0 46 41" fill="none" xmlns="http://www.w3.org/2000/svg">
<path id="like_icon" d="M11.4853 37.2016V17.1265C11.4853 15.5429 10.1994 14.3393 8.61394 14.3393H2.87131C1.28581 14.3393 0 15.6236 0 17.1265V37.121C0 38.7046 1.28581 39.9082 2.87131 39.9082H8.61394C10.2021 40.0695 11.4853 38.8596 11.4853 37.2016ZM45.941 17.2162C45.941 14.8412 44.0136 12.9162 41.634 12.9162H28.4888C30.5319 9.51863 31.5862 5.66762 31.5862 4.31076C31.5844 2.1975 29.9245 0 27.1429 0C21.4783 0 24.7776 6.82463 17.4343 12.6903L15.9717 13.8554C14.9129 14.7068 14.3745 15.9525 14.3655 17.2072C14.3634 17.2093 14.3655 17.2072 14.3655 17.2072L14.3566 31.5465C14.3566 32.8998 14.9948 34.1751 16.0794 34.9871L19.1427 37.2805C21.6246 39.1464 24.6484 40.1501 27.753 40.1501H33.0201C35.3997 40.1501 37.3271 38.226 37.3271 35.8501C37.3271 35.5244 37.284 35.21 37.2153 34.9046C38.9422 34.3427 40.1984 32.7475 40.1984 30.8296C40.1984 30.0097 39.9564 29.2513 39.5578 28.5998C41.5533 28.2306 43.0697 26.483 43.0697 24.3858C43.0697 23.2656 42.6307 22.2546 41.9284 21.4893C44.1644 21.3387 45.941 19.4925 45.941 17.2162Z" fill="#6284FF"/>
</svg>
