<svg width="68" height="59" viewBox="0 0 68 59" fill="none" xmlns="http://www.w3.org/2000/svg">
<path id="logout_icon" d="M20.9926 50.298H12.5956C10.2772 50.298 8.39705 48.421 8.39705 46.1065V12.5745C8.39705 10.26 10.2772 8.38299 12.5956 8.38299H20.9926C23.311 8.38299 25.1912 6.50599 25.1912 4.1915C25.1912 1.877 23.3149 0 20.9926 0H12.5956C5.63914 0 0 5.6297 0 12.5745V46.1065C0 53.0513 5.63914 58.681 12.5956 58.681H20.9926C23.311 58.681 25.1912 56.804 25.1912 54.4895C25.1912 52.175 23.3149 50.298 20.9926 50.298ZM65.9431 26.3802L49.149 9.61425C47.5076 7.97563 44.8507 7.97825 43.212 9.61425C41.572 11.2516 41.572 13.904 43.212 15.5413L52.8489 25.149H25.1912C22.8688 25.149 20.9926 27.0221 20.9926 29.3405C20.9926 31.6589 22.8702 33.532 25.1912 33.532H52.8489L43.2212 43.1436C41.5811 44.7809 41.5811 47.4333 43.2212 49.0706C44.8612 50.708 47.5181 50.708 49.1582 49.0706L65.9523 32.3047C67.5831 30.6634 67.5831 28.0175 65.9431 26.3802Z" fill="white"/>
</svg>
