<svg width="63" height="59" viewBox="0 0 63 59" fill="none" xmlns="http://www.w3.org/2000/svg">
<g id="profile_icon">
<mask id="path-1-inside-1_306_7" fill="white">
<path fill-rule="evenodd" clip-rule="evenodd" d="M15.98 58.3716C13.5232 57.0003 11.2127 55.2707 9.12472 53.1828C-3.04157 41.0165 -3.04157 21.291 9.12472 9.12472C21.291 -3.04157 41.0165 -3.04157 53.1828 9.12472C65.3491 21.291 65.3491 41.0165 53.1828 53.1828C50.9435 55.4221 48.4481 57.2492 45.7909 58.6642C47.4728 53.3057 46.1906 47.2178 41.9443 42.9715C35.8612 36.8883 25.9984 36.8883 19.9153 42.9715C15.7461 47.1407 14.4343 53.0852 15.98 58.3716ZM36.6384 31.0327C33.5968 34.0743 28.6655 34.0743 25.6239 31.0327C22.5823 27.9912 22.5823 23.0598 25.6239 20.0182C28.6655 16.9767 33.5968 16.9767 36.6384 20.0182C39.68 23.0598 39.68 27.9912 36.6384 31.0327Z"/>
</mask>
<path fill-rule="evenodd" clip-rule="evenodd" d="M15.98 58.3716C13.5232 57.0003 11.2127 55.2707 9.12472 53.1828C-3.04157 41.0165 -3.04157 21.291 9.12472 9.12472C21.291 -3.04157 41.0165 -3.04157 53.1828 9.12472C65.3491 21.291 65.3491 41.0165 53.1828 53.1828C50.9435 55.4221 48.4481 57.2492 45.7909 58.6642C47.4728 53.3057 46.1906 47.2178 41.9443 42.9715C35.8612 36.8883 25.9984 36.8883 19.9153 42.9715C15.7461 47.1407 14.4343 53.0852 15.98 58.3716ZM36.6384 31.0327C33.5968 34.0743 28.6655 34.0743 25.6239 31.0327C22.5823 27.9912 22.5823 23.0598 25.6239 20.0182C28.6655 16.9767 33.5968 16.9767 36.6384 20.0182C39.68 23.0598 39.68 27.9912 36.6384 31.0327Z" fill="#6284FF"/>
<path d="M9.12472 53.1828L-8.55295 70.8605L-8.55295 70.8605L9.12472 53.1828ZM15.98 58.3716L3.79545 80.2013L57.1104 109.96L39.9754 51.3557L15.98 58.3716ZM9.12472 9.12472L-8.55295 -8.55295L9.12472 9.12472ZM53.1828 9.12472L35.5051 26.8024L35.5051 26.8024L53.1828 9.12472ZM53.1828 53.1828L35.5051 35.5051L35.5051 35.5051L53.1828 53.1828ZM45.7909 58.6642L21.9383 51.1775L3.65595 109.425L57.5415 80.7305L45.7909 58.6642ZM41.9443 42.9715L59.622 25.2938L59.622 25.2938L41.9443 42.9715ZM19.9153 42.9715L2.23763 25.2938L2.23762 25.2938L19.9153 42.9715ZM25.6239 31.0327L7.94621 48.7104L7.94621 48.7104L25.6239 31.0327ZM36.6384 31.0327L18.9607 13.3551L18.9607 13.3551L36.6384 31.0327ZM36.6384 20.0182L18.9607 37.6959L18.9607 37.6959L36.6384 20.0182ZM-8.55295 70.8605C-4.81826 74.5951 -0.655274 77.7171 3.79545 80.2013L28.1646 36.5419C27.7017 36.2836 27.2436 35.9463 26.8024 35.5051L-8.55295 70.8605ZM-8.55295 -8.55295C-30.4824 13.3765 -30.4824 48.931 -8.55295 70.8605L26.8024 35.5051C24.3992 33.1019 24.3992 29.2056 26.8024 26.8024L-8.55295 -8.55295ZM70.8605 -8.55294C48.931 -30.4824 13.3765 -30.4823 -8.55295 -8.55295L26.8024 26.8024C29.2056 24.3992 33.1019 24.3992 35.5051 26.8024L70.8605 -8.55294ZM70.8604 70.8605C92.7899 48.931 92.7899 13.3765 70.8604 -8.55295L35.5051 26.8024C37.9083 29.2056 37.9083 33.1019 35.5051 35.5051L70.8604 70.8605ZM57.5415 80.7305C62.3563 78.1666 66.854 74.8669 70.8605 70.8604L35.5051 35.5051C35.033 35.9773 34.5399 36.3318 34.0404 36.5978L57.5415 80.7305ZM24.2667 60.6491C21.673 58.0554 20.9421 54.3515 21.9383 51.1775L69.6436 66.1509C74.0036 52.2599 70.7083 36.3801 59.622 25.2938L24.2667 60.6491ZM37.593 60.6491C33.913 64.3291 27.9466 64.3291 24.2667 60.6491L59.622 25.2938C43.7757 9.44755 18.0839 9.44755 2.23763 25.2938L37.593 60.6491ZM39.9754 51.3557C40.8898 54.4833 40.1389 58.1032 37.593 60.6491L2.23762 25.2938C-8.64669 36.1781 -12.0211 51.6872 -8.01534 65.3875L39.9754 51.3557ZM7.94621 48.7104C20.7509 61.5151 41.5114 61.5151 54.3161 48.7104L18.9607 13.3551C25.6823 6.63353 36.58 6.63354 43.3015 13.3551L7.94621 48.7104ZM7.94621 2.34056C-4.85848 15.1452 -4.85848 35.9057 7.94621 48.7104L43.3015 13.3551C50.0231 20.0766 50.0231 30.9744 43.3015 37.6959L7.94621 2.34056ZM54.3161 2.34056C41.5114 -10.4641 20.7509 -10.4641 7.94621 2.34056L43.3015 37.6959C36.58 44.4174 25.6823 44.4174 18.9607 37.6959L54.3161 2.34056ZM54.3161 48.7104C67.1207 35.9057 67.1207 15.1452 54.3161 2.34055L18.9607 37.6959C12.2392 30.9744 12.2392 20.0766 18.9607 13.3551L54.3161 48.7104Z" fill="#6284FF" mask="url(#path-1-inside-1_306_7)"/>
</g>
</svg>
