<svg width="156" height="37" viewBox="0 0 156 37" fill="none" xmlns="http://www.w3.org/2000/svg">
<path id="sfera_txt_icon" d="M15.1 36.35C11 36.35 7.63333 35.3833 5 33.45C2.36667 31.4833 0.95 28.6833 0.75 25.05H11.2C11.3 26.2833 11.6667 27.1833 12.3 27.75C12.9333 28.3167 13.75 28.6 14.75 28.6C15.65 28.6 16.3833 28.3833 16.95 27.95C17.55 27.4833 17.85 26.85 17.85 26.05C17.85 25.0167 17.3667 24.2167 16.4 23.65C15.4333 23.0833 13.8667 22.45 11.7 21.75C9.4 20.9833 7.53333 20.25 6.1 19.55C4.7 18.8167 3.46667 17.7667 2.4 16.4C1.36667 15 0.85 13.1833 0.85 10.95C0.85 8.68333 1.41667 6.75 2.55 5.15C3.68333 3.51667 5.25 2.28333 7.25 1.45C9.25 0.616665 11.5167 0.199999 14.05 0.199999C18.15 0.199999 21.4167 1.16667 23.85 3.1C26.3167 5 27.6333 7.68333 27.8 11.15H17.15C17.1167 10.0833 16.7833 9.28333 16.15 8.75C15.55 8.21666 14.7667 7.95 13.8 7.95C13.0667 7.95 12.4667 8.16666 12 8.6C11.5333 9.03333 11.3 9.65 11.3 10.45C11.3 11.1167 11.55 11.7 12.05 12.2C12.5833 12.6667 13.2333 13.0833 14 13.45C14.7667 13.7833 15.9 14.2167 17.4 14.75C19.6333 15.5167 21.4667 16.2833 22.9 17.05C24.3667 17.7833 25.6167 18.8333 26.65 20.2C27.7167 21.5333 28.25 23.2333 28.25 25.3C28.25 27.4 27.7167 29.2833 26.65 30.95C25.6167 32.6167 24.1 33.9333 22.1 34.9C20.1333 35.8667 17.8 36.35 15.1 36.35ZM56.7059 0.749998V8.55H42.6059V14.75H53.0059V22.2H42.6059V36H32.8059V0.749998H56.7059ZM70.6332 8.6V14.35H81.8832V21.8H70.6332V28.15H83.3832V36H60.8332V0.749998H83.3832V8.6H70.6332ZM106.076 36L99.0758 23H98.0258V36H88.2258V0.749998H103.676C106.509 0.749998 108.909 1.25 110.876 2.25C112.842 3.21667 114.326 4.56667 115.326 6.3C116.326 8 116.826 9.91666 116.826 12.05C116.826 14.45 116.159 16.5667 114.826 18.4C113.526 20.2 111.609 21.4833 109.076 22.25L117.026 36H106.076ZM98.0258 16.3H102.876C104.209 16.3 105.209 15.9833 105.876 15.35C106.542 14.7167 106.876 13.8 106.876 12.6C106.876 11.4667 106.526 10.5833 105.826 9.95C105.159 9.28333 104.176 8.95 102.876 8.95H98.0258V16.3ZM143.582 30.25H131.082L129.182 36H118.882L131.732 0.749998H143.032L155.832 36H145.482L143.582 30.25ZM141.132 22.75L137.332 11.35L133.582 22.75H141.132Z" fill="#6284FF"/>
</svg>
