<svg width="73" height="71" viewBox="0 0 73 71" fill="none" xmlns="http://www.w3.org/2000/svg">
<g id="user_icon">
<g id="Group 8">
<g id="Subtract">
<mask id="path-1-inside-1_306_31" fill="white">
<path fill-rule="evenodd" clip-rule="evenodd" d="M23.5076 57.5389C21.5192 56.4292 19.6492 55.0295 17.9595 53.3397C8.11507 43.4953 8.11507 27.5344 17.9595 17.6899C27.8039 7.84554 43.7648 7.84554 53.6092 17.6899C63.4536 27.5344 63.4536 43.4953 53.6092 53.3397C51.7977 55.1513 49.779 56.6295 47.6294 57.7743C48.9898 53.4387 47.9522 48.5131 44.5166 45.0774C39.5944 40.1552 31.6139 40.1552 26.6917 45.0774C23.3181 48.451 22.2567 53.2613 23.5076 57.5389ZM40.2229 35.417C37.7617 37.8781 33.7715 37.8781 31.3104 35.417C28.8493 32.9559 28.8493 28.9657 31.3104 26.5046C33.7715 24.0435 37.7617 24.0435 40.2229 26.5046C42.684 28.9657 42.684 32.9559 40.2229 35.417Z"/>
</mask>
<path fill-rule="evenodd" clip-rule="evenodd" d="M23.5076 57.5389C21.5192 56.4292 19.6492 55.0295 17.9595 53.3397C8.11507 43.4953 8.11507 27.5344 17.9595 17.6899C27.8039 7.84554 43.7648 7.84554 53.6092 17.6899C63.4536 27.5344 63.4536 43.4953 53.6092 53.3397C51.7977 55.1513 49.779 56.6295 47.6294 57.7743C48.9898 53.4387 47.9522 48.5131 44.5166 45.0774C39.5944 40.1552 31.6139 40.1552 26.6917 45.0774C23.3181 48.451 22.2567 53.2613 23.5076 57.5389ZM40.2229 35.417C37.7617 37.8781 33.7715 37.8781 31.3104 35.417C28.8493 32.9559 28.8493 28.9657 31.3104 26.5046C33.7715 24.0435 37.7617 24.0435 40.2229 26.5046C42.684 28.9657 42.684 32.9559 40.2229 35.417Z" fill="#6284FF"/>
<path d="M17.9595 53.3397L0.281807 71.0174L0.281809 71.0174L17.9595 53.3397ZM23.5076 57.5389L11.3241 79.3692L64.639 109.124L47.5027 50.5222L23.5076 57.5389ZM17.9595 17.6899L35.6371 35.3676L35.6371 35.3676L17.9595 17.6899ZM53.6092 17.6899L35.9316 35.3676L35.9316 35.3676L53.6092 17.6899ZM47.6294 57.7743L23.7761 50.2895L5.49886 108.537L59.3812 79.84L47.6294 57.7743ZM26.6917 45.0774L9.01404 27.3997L9.01403 27.3998L26.6917 45.0774ZM31.3104 26.5046L13.6327 8.82693L13.6327 8.82693L31.3104 26.5046ZM40.2229 26.5046L57.9005 8.82693L57.9005 8.82693L40.2229 26.5046ZM0.281809 71.0174C3.61863 74.3542 7.34142 77.1465 11.3241 79.3692L35.691 35.7085C35.6909 35.7085 35.6903 35.7081 35.6891 35.7074C35.688 35.7067 35.6858 35.7052 35.6824 35.7026C35.6763 35.698 35.6611 35.686 35.6371 35.662L0.281809 71.0174ZM0.281807 0.0122754C-19.3257 19.6198 -19.3257 51.4099 0.281807 71.0174L35.6371 35.662C35.6038 35.6286 35.5927 35.6113 35.592 35.6104C35.5905 35.6082 35.5903 35.6077 35.5896 35.6058C35.5868 35.599 35.5762 35.5671 35.5762 35.5148C35.5762 35.4625 35.5868 35.4307 35.5896 35.4238C35.5903 35.422 35.5905 35.4215 35.592 35.4193C35.5927 35.4183 35.6038 35.401 35.6371 35.3676L0.281807 0.0122754ZM71.2869 0.0122761C51.6794 -19.5952 19.8893 -19.5952 0.281806 0.0122765L35.6371 35.3676C35.6705 35.3342 35.6878 35.3231 35.6888 35.3225C35.691 35.321 35.6915 35.3208 35.6933 35.3201C35.7002 35.3173 35.732 35.3066 35.7844 35.3066C35.8367 35.3066 35.8685 35.3173 35.8754 35.3201C35.8772 35.3208 35.8777 35.321 35.8799 35.3225C35.8809 35.3231 35.8982 35.3342 35.9316 35.3676L71.2869 0.0122761ZM71.2869 71.0174C90.8944 51.4099 90.8944 19.6198 71.2869 0.0122754L35.9316 35.3676C35.9649 35.401 35.976 35.4183 35.9767 35.4193C35.9782 35.4215 35.9784 35.422 35.9791 35.4238C35.9819 35.4307 35.9925 35.4625 35.9925 35.5148C35.9925 35.5671 35.9819 35.599 35.9791 35.6058C35.9784 35.6077 35.9782 35.6082 35.9767 35.6104C35.976 35.6113 35.9649 35.6286 35.9316 35.662L71.2869 71.0174ZM59.3812 79.84C63.6879 77.5463 67.7085 74.5957 71.2869 71.0174L35.9316 35.662C35.906 35.6875 35.8903 35.6996 35.8849 35.7036C35.8817 35.706 35.8797 35.7073 35.8789 35.7078C35.878 35.7084 35.8776 35.7086 35.8775 35.7086L59.3812 79.84ZM26.8389 62.7551C23.4351 59.3512 22.4594 54.4858 23.7761 50.2895L71.4826 65.2591C75.5203 52.3916 72.4694 37.6749 62.1942 27.3997L26.8389 62.7551ZM44.3694 62.7551C39.5285 67.596 31.6798 67.596 26.8389 62.7551L62.1942 27.3997C47.5089 12.7144 23.6993 12.7144 9.01404 27.3997L44.3694 62.7551ZM47.5027 50.5222C48.7123 54.6588 47.7111 59.4134 44.3694 62.7551L9.01403 27.3998C-1.07491 37.4887 -4.19888 51.8638 -0.487584 64.5555L47.5027 50.5222ZM13.6327 53.0947C25.857 65.3189 45.6763 65.3189 57.9005 53.0947L22.5452 17.7394C29.8472 10.4374 41.6861 10.4374 48.9881 17.7394L13.6327 53.0947ZM13.6327 8.82693C1.40853 21.0511 1.40853 40.8705 13.6327 53.0947L48.9881 17.7394C56.2901 25.0414 56.2901 36.8803 48.9881 44.1823L13.6327 8.82693ZM57.9005 8.82693C45.6763 -3.39728 25.857 -3.39728 13.6327 8.82693L48.9881 44.1823C41.6861 51.4843 29.8472 51.4843 22.5452 44.1823L57.9005 8.82693ZM57.9005 53.0947C70.1247 40.8705 70.1247 21.0511 57.9005 8.82693L22.5452 44.1823C15.2432 36.8803 15.2432 25.0414 22.5452 17.7394L57.9005 53.0947Z" fill="#6284FF" mask="url(#path-1-inside-1_306_31)"/>
</g>
</g>
<circle id="circ3" r="6.75603" transform="matrix(1 -1.19021e-08 -0.0165799 0.999863 65.1635 18.7229)" fill="#6284FF"/>
<circle id="circ3_2" r="32.7612" transform="matrix(1 -1.19021e-08 -0.0165799 0.999863 35.8465 35.2562)" stroke="#6284FF" stroke-width="5"/>
<circle id="circ3_3" r="4.82574" transform="matrix(1 -1.19021e-08 -0.0165799 0.999863 10.3102 56.943)" fill="#6284FF"/>
</g>
</svg>
